<svg width="67" height="66" viewBox="0 0 67 66" fill="none" xmlns="http://www.w3.org/2000/svg">
<g clip-path="url(#clip0_20_4)">
<circle cx="33.2003" cy="32.8929" r="31.8134" stroke="#353535" stroke-width="2"/>
<g clip-path="url(#clip1_20_4)">
<path fill-rule="evenodd" clip-rule="evenodd" d="M37.9999 29.2893C37.6076 28.9843 37.0403 29.012 36.6799 29.3725L36.5967 29.4667C36.2916 29.859 36.3194 30.4262 36.6799 30.7867L37.9723 32.0796H27.387L27.2703 32.0863C26.773 32.1441 26.387 32.5668 26.387 33.0796C26.387 33.6319 26.8347 34.0796 27.387 34.0796H37.9723L36.6799 35.3725L36.5967 35.4667C36.2916 35.859 36.3194 36.4262 36.6799 36.7867C37.0704 37.1772 37.7035 37.1772 38.0941 36.7867L41.0941 33.7867L41.1773 33.6925C41.4823 33.3002 41.4546 32.733 41.0941 32.3725L38.0941 29.3725L37.9999 29.2893Z" fill="#1C1C1C"/>
</g>
</g>
<defs>
<clipPath id="clip0_20_4">
<rect width="65.6267" height="65.6267" fill="white" transform="translate(0.386963 0.0795898)"/>
</clipPath>
<clipPath id="clip1_20_4">
<rect width="24" height="24" fill="white" transform="translate(21.387 21.0796)"/>
</clipPath>
</defs>
</svg>
