<svg width="33" height="32" viewBox="0 0 33 32" fill="none" xmlns="http://www.w3.org/2000/svg">
<circle cx="16.6218" cy="15.874" r="15.874" transform="rotate(-90 16.6218 15.874)" fill="black"/>
<path fill-rule="evenodd" clip-rule="evenodd" d="M21.0525 12.5633C20.6911 12.2823 20.1685 12.3079 19.8364 12.6399L19.7598 12.7267C19.4788 13.0881 19.5043 13.6107 19.8364 13.9428L21.0271 15.1339L11.2753 15.1339L11.1678 15.1401C10.7096 15.1933 10.354 15.5827 10.354 16.0552C10.354 16.564 10.7665 16.9764 11.2753 16.9764L21.0271 16.9764L19.8364 18.1675L19.7598 18.2543C19.4788 18.6157 19.5043 19.1383 19.8364 19.4704C20.1962 19.8301 20.7795 19.8301 21.1393 19.4704L23.9031 16.7066L23.9797 16.6198C24.2607 16.2584 24.2352 15.7358 23.9031 15.4037L21.1393 12.6399L21.0525 12.5633Z" fill="white"/>
</svg>
