<svg width="32" height="32" viewBox="0 0 32 32" fill="none" xmlns="http://www.w3.org/2000/svg">
<circle cx="15.874" cy="15.874" r="15.874" transform="rotate(90 15.874 15.874)" fill="black"/>
<path fill-rule="evenodd" clip-rule="evenodd" d="M11.4432 19.4367C11.8046 19.7177 12.3272 19.6922 12.6593 19.3601L12.7359 19.2733C13.0169 18.9119 12.9914 18.3893 12.6593 18.0572L11.4686 16.8661L21.2205 16.8661L21.3279 16.8599C21.7861 16.8067 22.1417 16.4173 22.1417 15.9448C22.1417 15.436 21.7293 15.0236 21.2205 15.0236L11.4686 15.0236L12.6593 13.8325L12.7359 13.7457C13.0169 13.3843 12.9914 12.8617 12.6593 12.5296C12.2995 12.1699 11.7162 12.1699 11.3564 12.5296L8.59265 15.2934L8.51601 15.3802C8.23501 15.7416 8.26055 16.2642 8.59265 16.5963L11.3564 19.3601L11.4432 19.4367Z" fill="white"/>
</svg>
