<svg width="24" height="24" viewBox="0 0 24 24" fill="none" xmlns="http://www.w3.org/2000/svg">
<path fill-rule="evenodd" clip-rule="evenodd" d="M11 3C6.58172 3 3 6.58172 3 11C3 15.4183 6.58172 19 11 19C15.4183 19 19 15.4183 19 11C19 6.58172 15.4183 3 11 3ZM11 5C14.3137 5 17 7.68629 17 11C17 14.3137 14.3137 17 11 17C7.68629 17 5 14.3137 5 11C5 7.68629 7.68629 5 11 5Z" fill="white"/>
<g opacity="0.5">
<path fill-rule="evenodd" clip-rule="evenodd" d="M15.2926 15.2969C15.6529 14.9362 16.2201 14.9082 16.6125 15.2131L16.7068 15.2962L20.7068 19.2926C21.0975 19.6829 21.0978 20.3161 20.7074 20.7068C20.3471 21.0675 19.7799 21.0954 19.3875 20.7906L19.2932 20.7075L15.2932 16.7111C14.9025 16.3207 14.9022 15.6876 15.2926 15.2969Z" fill="white"/>
</g>
</svg>
