<svg width="30" height="30" viewBox="0 0 30 30" fill="none" xmlns="http://www.w3.org/2000/svg">
<path fill-rule="evenodd" clip-rule="evenodd" d="M13.75 3.75C8.22715 3.75 3.75 8.22715 3.75 13.75C3.75 19.2728 8.22715 23.75 13.75 23.75C19.2728 23.75 23.75 19.2728 23.75 13.75C23.75 8.22715 19.2728 3.75 13.75 3.75ZM13.75 6.25C17.8921 6.25 21.25 9.60786 21.25 13.75C21.25 17.8921 17.8921 21.25 13.75 21.25C9.60786 21.25 6.25 17.8921 6.25 13.75C6.25 9.60786 9.60786 6.25 13.75 6.25Z" fill="black"/>
<path fill-rule="evenodd" clip-rule="evenodd" d="M19.1157 19.1211C19.5661 18.6703 20.2751 18.6353 20.7657 19.0163L20.8835 19.1203L25.8835 24.1157C26.3719 24.6037 26.3722 25.3951 25.8843 25.8835C25.4339 26.3343 24.7249 26.3693 24.2343 25.9882L24.1165 25.8843L19.1165 20.8888C18.6281 20.4009 18.6278 19.6094 19.1157 19.1211Z" fill="black"/>
</svg>
